<?xml version="1.0" encoding="UTF-8" standalone="no"?>
<!DOCTYPE svg PUBLIC "-//W3C//DTD SVG 1.1//EN"
 "http://www.w3.org/Graphics/SVG/1.1/DTD/svg11.dtd">
<!-- Generated by graphviz version 2.38.0 (20140413.2041)
 -->
<!-- Title: %3 Pages: 1 -->
<svg width="194pt" height="448pt"
 viewBox="0.00 0.00 193.50 448.30" xmlns="http://www.w3.org/2000/svg" xmlns:xlink="http://www.w3.org/1999/xlink">
<g id="graph0" class="graph" transform="scale(1 1) rotate(0) translate(4 444.295)">
<title>%3</title>
<polygon fill="white" stroke="none" points="-4,4 -4,-444.295 189.5,-444.295 189.5,4 -4,4"/>
<!-- start -->
<g id="node1" class="node"><title>start</title>
<ellipse fill="pink" stroke="pink" cx="121.5" cy="-413.648" rx="26.7961" ry="26.7961"/>
<text text-anchor="middle" x="121.5" y="-409.948" font-family="Times New Roman,serif" font-size="14.00">start</text>
</g>
<!-- state1 -->
<g id="node2" class="node"><title>state1</title>
<polygon fill="lightgrey" stroke="black" points="49,-336 0,-336 0,-287 49,-287 49,-336"/>
<text text-anchor="middle" x="24.5" y="-307.8" font-family="Times New Roman,serif" font-size="14.00">state1</text>
</g>
<!-- start&#45;&gt;state1 -->
<g id="edge1" class="edge"><title>start&#45;&gt;state1</title>
<path fill="none" stroke="black" d="M103.255,-393.811C89.5488,-379.66 70.475,-359.967 54.5315,-343.506"/>
<polygon fill="black" stroke="black" points="56.9283,-340.95 47.4569,-336.202 51.9002,-345.82 56.9283,-340.95"/>
<text text-anchor="middle" x="88.5" y="-357.8" font-family="Times New Roman,serif" font-size="14.00">0.8</text>
</g>
<!-- state2 -->
<g id="node3" class="node"><title>state2</title>
<polygon fill="lightgrey" stroke="black" points="95,-236 46,-236 46,-187 95,-187 95,-236"/>
<text text-anchor="middle" x="70.5" y="-207.8" font-family="Times New Roman,serif" font-size="14.00">state2</text>
</g>
<!-- start&#45;&gt;state2 -->
<g id="edge2" class="edge"><title>start&#45;&gt;state2</title>
<path fill="none" stroke="black" d="M116.412,-386.994C111.207,-361.498 102.613,-321.346 93.5,-287 89.9116,-273.476 85.4712,-258.727 81.4519,-245.947"/>
<polygon fill="black" stroke="black" points="84.7116,-244.649 78.3431,-236.181 78.0414,-246.772 84.7116,-244.649"/>
<text text-anchor="middle" x="114.5" y="-307.8" font-family="Times New Roman,serif" font-size="14.00">0.2</text>
</g>
<!-- state1&#45;&gt;state1 -->
<g id="edge3" class="edge"><title>state1&#45;&gt;state1</title>
<path fill="none" stroke="black" d="M49.3829,-320.838C59.0036,-321.253 67,-318.141 67,-311.5 67,-307.453 64.0306,-304.717 59.5338,-303.29"/>
<polygon fill="black" stroke="black" points="59.7084,-299.788 49.3829,-302.162 58.9349,-306.745 59.7084,-299.788"/>
<text text-anchor="middle" x="76" y="-307.8" font-family="Times New Roman,serif" font-size="14.00">0.5</text>
</g>
<!-- state1&#45;&gt;state2 -->
<g id="edge5" class="edge"><title>state1&#45;&gt;state2</title>
<path fill="none" stroke="black" d="M35.6353,-286.777C41.5116,-274.258 48.8108,-258.708 55.2096,-245.075"/>
<polygon fill="black" stroke="black" points="58.3864,-246.544 59.4672,-236.005 52.0498,-243.57 58.3864,-246.544"/>
<text text-anchor="middle" x="59.5" y="-257.8" font-family="Times New Roman,serif" font-size="14.00">0.5</text>
</g>
<!-- state2&#45;&gt;state2 -->
<g id="edge4" class="edge"><title>state2&#45;&gt;state2</title>
<path fill="none" stroke="black" d="M95.3829,-220.838C105.004,-221.253 113,-218.141 113,-211.5 113,-207.453 110.031,-204.717 105.534,-203.29"/>
<polygon fill="black" stroke="black" points="105.708,-199.788 95.3829,-202.162 104.935,-206.745 105.708,-199.788"/>
<text text-anchor="middle" x="122" y="-207.8" font-family="Times New Roman,serif" font-size="14.00">0.8</text>
</g>
<!-- end -->
<g id="node4" class="node"><title>end</title>
<polygon fill="lightgrey" stroke="black" points="127,-136 90,-136 90,-99 127,-99 127,-136"/>
<text text-anchor="middle" x="108.5" y="-113.8" font-family="Times New Roman,serif" font-size="14.00">end</text>
</g>
<!-- state2&#45;&gt;end -->
<g id="edge6" class="edge"><title>state2&#45;&gt;end</title>
<path fill="none" stroke="black" d="M80.2859,-186.808C85.508,-174.165 91.9553,-158.556 97.368,-145.451"/>
<polygon fill="black" stroke="black" points="100.685,-146.588 101.268,-136.009 94.2154,-143.916 100.685,-146.588"/>
<text text-anchor="middle" x="102.5" y="-157.8" font-family="Times New Roman,serif" font-size="14.00">0.2</text>
</g>
<!-- count -->
<g id="node5" class="node"><title>count</title>
<polygon fill="lightgrey" stroke="black" points="168.5,-48 120.5,-48 120.5,-0 168.5,-0 168.5,-48"/>
<text text-anchor="middle" x="144.5" y="-20.3" font-family="Times New Roman,serif" font-size="14.00">count</text>
</g>
<!-- end&#45;&gt;count -->
<g id="edge7" class="edge"><title>end&#45;&gt;count</title>
<path fill="none" stroke="black" d="M115.441,-98.8579C120.012,-87.2407 126.136,-71.6756 131.583,-57.8303"/>
<polygon fill="black" stroke="black" points="134.994,-58.7208 135.398,-48.1336 128.48,-56.1579 134.994,-58.7208"/>
<text text-anchor="middle" x="137.5" y="-69.8" font-family="Times New Roman,serif" font-size="14.00">1.0</text>
</g>
<!-- count&#45;&gt;start -->
<g id="edge8" class="edge"><title>count&#45;&gt;start</title>
<path fill="none" stroke="black" d="M153.722,-48.2939C160.121,-66.5493 167.5,-92.7496 167.5,-116.5 167.5,-312.5 167.5,-312.5 167.5,-312.5 167.5,-338.102 154.933,-364.301 142.935,-383.478"/>
<polygon fill="black" stroke="black" points="139.884,-381.749 137.331,-392.031 145.739,-385.585 139.884,-381.749"/>
<text text-anchor="middle" x="176.5" y="-207.8" font-family="Times New Roman,serif" font-size="14.00">1.0</text>
</g>
</g>
</svg>
